<svg xmlns="http://www.w3.org/2000/svg" version="1.1" xmlns:xlink="http://www.w3.org/1999/xlink" xmlns:svgjs="http://svgjs.dev/svgjs" viewBox="0 0 2400 800" opacity="1"><defs><linearGradient x1="50%" y1="0%" x2="50%" y2="100%" id="sssurf-grad"><stop stop-color="hsl(105, 69%, 40%)" stop-opacity="1" offset="0%"></stop><stop stop-color="hsl(105, 69%, 60%)" stop-opacity="1" offset="100%"></stop></linearGradient></defs><g fill="url(#sssurf-grad)" transform="matrix(1,0,0,1,10.8282470703125,203.0147476196289)"><path d="M-10,10C33.75,23.125,114.58333333333334,80.91666666666667,200,73C285.41666666666663,65.08333333333333,316.66666666666663,-19.875,400,-28C483.33333333333337,-36.125,516.6666666666666,38.375,600,34C683.3333333333334,29.625,716.6666666666666,-47.333333333333336,800,-49C883.3333333333334,-50.666666666666664,916.6666666666666,18.916666666666664,1000,26C1083.3333333333333,33.083333333333336,1116.6666666666667,-17.083333333333332,1200,-15C1283.3333333333333,-12.916666666666666,1316.6666666666667,40.583333333333336,1400,36C1483.3333333333333,31.416666666666668,1516.6666666666667,-39.291666666666664,1600,-37C1683.3333333333333,-34.708333333333336,1716.6666666666667,40.333333333333336,1800,47C1883.3333333333333,53.666666666666664,1916.6666666666667,-2.291666666666667,2000,-5C2083.3333333333335,-7.708333333333333,2118.75,30.875,2200,34C2281.25,37.125,2296.25,-66.25,2390,10C2483.75,86.25,3252.0833333333335,214.58333333333331,2650,400C2047.9166666666665,585.4166666666667,156.25,795.8333333333334,-500,900" transform="matrix(1,0,0,1,0,49)" opacity="0.05"></path><path d="M-10,10C33.75,23.125,114.58333333333334,80.91666666666667,200,73C285.41666666666663,65.08333333333333,316.66666666666663,-19.875,400,-28C483.33333333333337,-36.125,516.6666666666666,38.375,600,34C683.3333333333334,29.625,716.6666666666666,-47.333333333333336,800,-49C883.3333333333334,-50.666666666666664,916.6666666666666,18.916666666666664,1000,26C1083.3333333333333,33.083333333333336,1116.6666666666667,-17.083333333333332,1200,-15C1283.3333333333333,-12.916666666666666,1316.6666666666667,40.583333333333336,1400,36C1483.3333333333333,31.416666666666668,1516.6666666666667,-39.291666666666664,1600,-37C1683.3333333333333,-34.708333333333336,1716.6666666666667,40.333333333333336,1800,47C1883.3333333333333,53.666666666666664,1916.6666666666667,-2.291666666666667,2000,-5C2083.3333333333335,-7.708333333333333,2118.75,30.875,2200,34C2281.25,37.125,2296.25,-66.25,2390,10C2483.75,86.25,3252.0833333333335,214.58333333333331,2650,400C2047.9166666666665,585.4166666666667,156.25,795.8333333333334,-500,900" transform="matrix(1,0,0,1,0,98)" opacity="0.24"></path><path d="M-10,10C33.75,23.125,114.58333333333334,80.91666666666667,200,73C285.41666666666663,65.08333333333333,316.66666666666663,-19.875,400,-28C483.33333333333337,-36.125,516.6666666666666,38.375,600,34C683.3333333333334,29.625,716.6666666666666,-47.333333333333336,800,-49C883.3333333333334,-50.666666666666664,916.6666666666666,18.916666666666664,1000,26C1083.3333333333333,33.083333333333336,1116.6666666666667,-17.083333333333332,1200,-15C1283.3333333333333,-12.916666666666666,1316.6666666666667,40.583333333333336,1400,36C1483.3333333333333,31.416666666666668,1516.6666666666667,-39.291666666666664,1600,-37C1683.3333333333333,-34.708333333333336,1716.6666666666667,40.333333333333336,1800,47C1883.3333333333333,53.666666666666664,1916.6666666666667,-2.291666666666667,2000,-5C2083.3333333333335,-7.708333333333333,2118.75,30.875,2200,34C2281.25,37.125,2296.25,-66.25,2390,10C2483.75,86.25,3252.0833333333335,214.58333333333331,2650,400C2047.9166666666665,585.4166666666667,156.25,795.8333333333334,-500,900" transform="matrix(1,0,0,1,0,147)" opacity="0.43"></path><path d="M-10,10C33.75,23.125,114.58333333333334,80.91666666666667,200,73C285.41666666666663,65.08333333333333,316.66666666666663,-19.875,400,-28C483.33333333333337,-36.125,516.6666666666666,38.375,600,34C683.3333333333334,29.625,716.6666666666666,-47.333333333333336,800,-49C883.3333333333334,-50.666666666666664,916.6666666666666,18.916666666666664,1000,26C1083.3333333333333,33.083333333333336,1116.6666666666667,-17.083333333333332,1200,-15C1283.3333333333333,-12.916666666666666,1316.6666666666667,40.583333333333336,1400,36C1483.3333333333333,31.416666666666668,1516.6666666666667,-39.291666666666664,1600,-37C1683.3333333333333,-34.708333333333336,1716.6666666666667,40.333333333333336,1800,47C1883.3333333333333,53.666666666666664,1916.6666666666667,-2.291666666666667,2000,-5C2083.3333333333335,-7.708333333333333,2118.75,30.875,2200,34C2281.25,37.125,2296.25,-66.25,2390,10C2483.75,86.25,3252.0833333333335,214.58333333333331,2650,400C2047.9166666666665,585.4166666666667,156.25,795.8333333333334,-500,900" transform="matrix(1,0,0,1,0,196)" opacity="0.62"></path><path d="M-10,10C33.75,23.125,114.58333333333334,80.91666666666667,200,73C285.41666666666663,65.08333333333333,316.66666666666663,-19.875,400,-28C483.33333333333337,-36.125,516.6666666666666,38.375,600,34C683.3333333333334,29.625,716.6666666666666,-47.333333333333336,800,-49C883.3333333333334,-50.666666666666664,916.6666666666666,18.916666666666664,1000,26C1083.3333333333333,33.083333333333336,1116.6666666666667,-17.083333333333332,1200,-15C1283.3333333333333,-12.916666666666666,1316.6666666666667,40.583333333333336,1400,36C1483.3333333333333,31.416666666666668,1516.6666666666667,-39.291666666666664,1600,-37C1683.3333333333333,-34.708333333333336,1716.6666666666667,40.333333333333336,1800,47C1883.3333333333333,53.666666666666664,1916.6666666666667,-2.291666666666667,2000,-5C2083.3333333333335,-7.708333333333333,2118.75,30.875,2200,34C2281.25,37.125,2296.25,-66.25,2390,10C2483.75,86.25,3252.0833333333335,214.58333333333331,2650,400C2047.9166666666665,585.4166666666667,156.25,795.8333333333334,-500,900" transform="matrix(1,0,0,1,0,245)" opacity="0.81"></path><path d="M-10,10C33.75,23.125,114.58333333333334,80.91666666666667,200,73C285.41666666666663,65.08333333333333,316.66666666666663,-19.875,400,-28C483.33333333333337,-36.125,516.6666666666666,38.375,600,34C683.3333333333334,29.625,716.6666666666666,-47.333333333333336,800,-49C883.3333333333334,-50.666666666666664,916.6666666666666,18.916666666666664,1000,26C1083.3333333333333,33.083333333333336,1116.6666666666667,-17.083333333333332,1200,-15C1283.3333333333333,-12.916666666666666,1316.6666666666667,40.583333333333336,1400,36C1483.3333333333333,31.416666666666668,1516.6666666666667,-39.291666666666664,1600,-37C1683.3333333333333,-34.708333333333336,1716.6666666666667,40.333333333333336,1800,47C1883.3333333333333,53.666666666666664,1916.6666666666667,-2.291666666666667,2000,-5C2083.3333333333335,-7.708333333333333,2118.75,30.875,2200,34C2281.25,37.125,2296.25,-66.25,2390,10C2483.75,86.25,3252.0833333333335,214.58333333333331,2650,400C2047.9166666666665,585.4166666666667,156.25,795.8333333333334,-500,900" transform="matrix(1,0,0,1,0,294)" opacity="1.00"></path></g></svg>